<mxfile host="Electron" modified="2023-11-07T12:53:28.222Z" agent="Mozilla/5.0 (Windows NT 10.0; Win64; x64) AppleWebKit/537.36 (KHTML, like Gecko) draw.io/22.0.3 Chrome/114.0.5735.289 Electron/25.8.4 Safari/537.36" etag="1_bW3Xdj1aqBswL91JiJ" version="22.0.3" type="device">
  <diagram name="Sayfa -1" id="jddc-5YOsjxY03oAq3fA">
    <mxGraphModel dx="1036" dy="606" grid="1" gridSize="10" guides="1" tooltips="1" connect="1" arrows="1" fold="1" page="1" pageScale="1" pageWidth="827" pageHeight="1169" math="0" shadow="0">
      <root>
        <mxCell id="0" />
        <mxCell id="1" parent="0" />
        <mxCell id="ntWPYJxJJS9R7PnWqo86-2" style="edgeStyle=orthogonalEdgeStyle;rounded=0;orthogonalLoop=1;jettySize=auto;html=1;" edge="1" parent="1" source="ntWPYJxJJS9R7PnWqo86-1" target="ntWPYJxJJS9R7PnWqo86-3">
          <mxGeometry relative="1" as="geometry">
            <mxPoint x="370" y="140" as="targetPoint" />
          </mxGeometry>
        </mxCell>
        <mxCell id="ntWPYJxJJS9R7PnWqo86-1" value="START" style="ellipse;whiteSpace=wrap;html=1;" vertex="1" parent="1">
          <mxGeometry x="310" y="10" width="120" height="80" as="geometry" />
        </mxCell>
        <mxCell id="ntWPYJxJJS9R7PnWqo86-4" style="edgeStyle=orthogonalEdgeStyle;rounded=0;orthogonalLoop=1;jettySize=auto;html=1;" edge="1" parent="1" source="ntWPYJxJJS9R7PnWqo86-3" target="ntWPYJxJJS9R7PnWqo86-5">
          <mxGeometry relative="1" as="geometry">
            <mxPoint x="370" y="220" as="targetPoint" />
          </mxGeometry>
        </mxCell>
        <mxCell id="ntWPYJxJJS9R7PnWqo86-3" value="sayac=0,toplamları&lt;br&gt;çarpımları,sayi" style="rounded=0;whiteSpace=wrap;html=1;" vertex="1" parent="1">
          <mxGeometry x="310" y="110" width="120" height="60" as="geometry" />
        </mxCell>
        <mxCell id="ntWPYJxJJS9R7PnWqo86-6" style="edgeStyle=orthogonalEdgeStyle;rounded=0;orthogonalLoop=1;jettySize=auto;html=1;" edge="1" parent="1" source="ntWPYJxJJS9R7PnWqo86-5" target="ntWPYJxJJS9R7PnWqo86-7">
          <mxGeometry relative="1" as="geometry">
            <mxPoint x="370" y="300" as="targetPoint" />
          </mxGeometry>
        </mxCell>
        <mxCell id="ntWPYJxJJS9R7PnWqo86-5" value="sayi giriniz" style="shape=parallelogram;perimeter=parallelogramPerimeter;whiteSpace=wrap;html=1;fixedSize=1;" vertex="1" parent="1">
          <mxGeometry x="310" y="190" width="120" height="60" as="geometry" />
        </mxCell>
        <mxCell id="ntWPYJxJJS9R7PnWqo86-8" style="edgeStyle=orthogonalEdgeStyle;rounded=0;orthogonalLoop=1;jettySize=auto;html=1;" edge="1" parent="1" source="ntWPYJxJJS9R7PnWqo86-7" target="ntWPYJxJJS9R7PnWqo86-9">
          <mxGeometry relative="1" as="geometry">
            <mxPoint x="370" y="380" as="targetPoint" />
          </mxGeometry>
        </mxCell>
        <mxCell id="ntWPYJxJJS9R7PnWqo86-7" value="sayi+sayi=toplamları" style="rounded=0;whiteSpace=wrap;html=1;" vertex="1" parent="1">
          <mxGeometry x="310" y="270" width="120" height="60" as="geometry" />
        </mxCell>
        <mxCell id="ntWPYJxJJS9R7PnWqo86-10" style="edgeStyle=orthogonalEdgeStyle;rounded=0;orthogonalLoop=1;jettySize=auto;html=1;" edge="1" parent="1" source="ntWPYJxJJS9R7PnWqo86-9" target="ntWPYJxJJS9R7PnWqo86-11">
          <mxGeometry relative="1" as="geometry">
            <mxPoint x="370" y="470" as="targetPoint" />
          </mxGeometry>
        </mxCell>
        <mxCell id="ntWPYJxJJS9R7PnWqo86-9" value="sayi*sayi=çarpımları" style="rounded=0;whiteSpace=wrap;html=1;" vertex="1" parent="1">
          <mxGeometry x="310" y="350" width="120" height="60" as="geometry" />
        </mxCell>
        <mxCell id="ntWPYJxJJS9R7PnWqo86-12" value="T" style="edgeStyle=orthogonalEdgeStyle;rounded=0;orthogonalLoop=1;jettySize=auto;html=1;" edge="1" parent="1" source="ntWPYJxJJS9R7PnWqo86-11" target="ntWPYJxJJS9R7PnWqo86-5">
          <mxGeometry relative="1" as="geometry">
            <mxPoint x="520" y="470" as="targetPoint" />
            <Array as="points">
              <mxPoint x="610" y="470" />
              <mxPoint x="610" y="220" />
            </Array>
          </mxGeometry>
        </mxCell>
        <mxCell id="ntWPYJxJJS9R7PnWqo86-13" value="F" style="edgeStyle=orthogonalEdgeStyle;rounded=0;orthogonalLoop=1;jettySize=auto;html=1;" edge="1" parent="1" source="ntWPYJxJJS9R7PnWqo86-11" target="ntWPYJxJJS9R7PnWqo86-14">
          <mxGeometry relative="1" as="geometry">
            <mxPoint x="370" y="570" as="targetPoint" />
          </mxGeometry>
        </mxCell>
        <mxCell id="ntWPYJxJJS9R7PnWqo86-11" value="sayac&amp;lt;10" style="rhombus;whiteSpace=wrap;html=1;" vertex="1" parent="1">
          <mxGeometry x="330" y="430" width="80" height="80" as="geometry" />
        </mxCell>
        <mxCell id="ntWPYJxJJS9R7PnWqo86-15" style="edgeStyle=orthogonalEdgeStyle;rounded=0;orthogonalLoop=1;jettySize=auto;html=1;" edge="1" parent="1" source="ntWPYJxJJS9R7PnWqo86-14" target="ntWPYJxJJS9R7PnWqo86-16">
          <mxGeometry relative="1" as="geometry">
            <mxPoint x="370" y="700" as="targetPoint" />
          </mxGeometry>
        </mxCell>
        <mxCell id="ntWPYJxJJS9R7PnWqo86-14" value="toplamları&lt;br&gt;çarpımları" style="shape=document;whiteSpace=wrap;html=1;boundedLbl=1;" vertex="1" parent="1">
          <mxGeometry x="310" y="560" width="120" height="80" as="geometry" />
        </mxCell>
        <mxCell id="ntWPYJxJJS9R7PnWqo86-16" value="finish" style="ellipse;whiteSpace=wrap;html=1;" vertex="1" parent="1">
          <mxGeometry x="310" y="660" width="120" height="80" as="geometry" />
        </mxCell>
      </root>
    </mxGraphModel>
  </diagram>
</mxfile>
